<mxfile host="app.diagrams.net" agent="Mozilla/5.0 (Macintosh; Intel Mac OS X 10_15_7) AppleWebKit/605.1.15 (KHTML, like Gecko) Version/18.4 Safari/605.1.15" version="28.2.3">
  <diagram name="Page-1" id="58TnTUvLrnlwUTc3l9yy">
    <mxGraphModel dx="1678" dy="949" grid="0" gridSize="10" guides="1" tooltips="1" connect="1" arrows="1" fold="1" page="1" pageScale="1" pageWidth="1169" pageHeight="827" math="0" shadow="0">
      <root>
        <mxCell id="0" />
        <mxCell id="1" parent="0" />
        <mxCell id="qsCXxjklibZktx6M7vEJ-27" style="edgeStyle=orthogonalEdgeStyle;rounded=0;orthogonalLoop=1;jettySize=auto;html=1;exitX=1;exitY=0.5;exitDx=0;exitDy=0;entryX=0;entryY=0.5;entryDx=0;entryDy=0;" parent="1" source="mLufBUS968L27i-inKiL-1" target="qsCXxjklibZktx6M7vEJ-23" edge="1">
          <mxGeometry relative="1" as="geometry" />
        </mxCell>
        <mxCell id="qsCXxjklibZktx6M7vEJ-31" style="edgeStyle=orthogonalEdgeStyle;rounded=0;orthogonalLoop=1;jettySize=auto;html=1;exitX=0.5;exitY=1;exitDx=0;exitDy=0;entryX=0.5;entryY=1;entryDx=0;entryDy=0;dashed=1;" parent="1" source="mLufBUS968L27i-inKiL-1" target="qsCXxjklibZktx6M7vEJ-52" edge="1">
          <mxGeometry relative="1" as="geometry">
            <mxPoint x="467.5" y="669" as="targetPoint" />
          </mxGeometry>
        </mxCell>
        <mxCell id="mLufBUS968L27i-inKiL-1" value="User" style="ellipse;whiteSpace=wrap;html=1;aspect=fixed;" parent="1" vertex="1">
          <mxGeometry x="119" y="35" width="80" height="80" as="geometry" />
        </mxCell>
        <mxCell id="qsCXxjklibZktx6M7vEJ-74" style="edgeStyle=orthogonalEdgeStyle;rounded=0;orthogonalLoop=1;jettySize=auto;html=1;exitX=0;exitY=0.5;exitDx=0;exitDy=0;entryX=1;entryY=0.5;entryDx=0;entryDy=0;dashed=1;" parent="1" source="mLufBUS968L27i-inKiL-15" target="qsCXxjklibZktx6M7vEJ-44" edge="1">
          <mxGeometry relative="1" as="geometry" />
        </mxCell>
        <mxCell id="kvsH329DIrdlZDI53jpL-13" style="edgeStyle=orthogonalEdgeStyle;rounded=0;orthogonalLoop=1;jettySize=auto;html=1;exitX=0;exitY=0.5;exitDx=0;exitDy=0;entryX=1;entryY=0.5;entryDx=0;entryDy=0;" parent="1" source="mLufBUS968L27i-inKiL-15" target="kvsH329DIrdlZDI53jpL-3" edge="1">
          <mxGeometry relative="1" as="geometry" />
        </mxCell>
        <mxCell id="mLufBUS968L27i-inKiL-15" value="Simulate monthly losses per bond term and calculate premiums" style="rounded=0;whiteSpace=wrap;html=1;" parent="1" vertex="1">
          <mxGeometry x="585" y="164" width="222" height="60" as="geometry" />
        </mxCell>
        <mxCell id="qsCXxjklibZktx6M7vEJ-53" style="edgeStyle=orthogonalEdgeStyle;rounded=0;orthogonalLoop=1;jettySize=auto;html=1;entryX=0;entryY=0.5;entryDx=0;entryDy=0;" parent="1" source="qsCXxjklibZktx6M7vEJ-23" target="qsCXxjklibZktx6M7vEJ-52" edge="1">
          <mxGeometry relative="1" as="geometry" />
        </mxCell>
        <mxCell id="qsCXxjklibZktx6M7vEJ-23" value="Set county/countries" style="rounded=0;whiteSpace=wrap;html=1;" parent="1" vertex="1">
          <mxGeometry x="306" y="45" width="222" height="60" as="geometry" />
        </mxCell>
        <mxCell id="qsCXxjklibZktx6M7vEJ-61" style="edgeStyle=orthogonalEdgeStyle;rounded=0;orthogonalLoop=1;jettySize=auto;html=1;exitX=0;exitY=0.5;exitDx=0;exitDy=0;entryX=0;entryY=0.5;entryDx=0;entryDy=0;dashed=1;" parent="1" source="kvsH329DIrdlZDI53jpL-3" target="qsCXxjklibZktx6M7vEJ-60" edge="1">
          <mxGeometry relative="1" as="geometry">
            <mxPoint x="682" y="352" as="sourcePoint" />
          </mxGeometry>
        </mxCell>
        <mxCell id="qsCXxjklibZktx6M7vEJ-62" style="edgeStyle=orthogonalEdgeStyle;rounded=0;orthogonalLoop=1;jettySize=auto;html=1;entryX=0.5;entryY=0;entryDx=0;entryDy=0;dashed=1;exitX=0.5;exitY=1;exitDx=0;exitDy=0;" parent="1" source="kvsH329DIrdlZDI53jpL-3" target="qsCXxjklibZktx6M7vEJ-59" edge="1">
          <mxGeometry relative="1" as="geometry">
            <mxPoint x="682" y="352" as="sourcePoint" />
          </mxGeometry>
        </mxCell>
        <mxCell id="qsCXxjklibZktx6M7vEJ-75" style="edgeStyle=orthogonalEdgeStyle;rounded=0;orthogonalLoop=1;jettySize=auto;html=1;exitX=0;exitY=0.5;exitDx=0;exitDy=0;entryX=1;entryY=0.5;entryDx=0;entryDy=0;dashed=1;" parent="1" source="qsCXxjklibZktx6M7vEJ-44" target="kvsH329DIrdlZDI53jpL-3" edge="1">
          <mxGeometry relative="1" as="geometry" />
        </mxCell>
        <mxCell id="qsCXxjklibZktx6M7vEJ-44" value="&lt;span style=&quot;caret-color: rgba(0, 0, 0, 0);&quot;&gt;Test CAT bond&lt;/span&gt;" style="rounded=0;whiteSpace=wrap;html=1;" parent="1" vertex="1">
          <mxGeometry x="396" y="209" width="126" height="61" as="geometry" />
        </mxCell>
        <mxCell id="kvsH329DIrdlZDI53jpL-2" style="edgeStyle=orthogonalEdgeStyle;rounded=0;orthogonalLoop=1;jettySize=auto;html=1;exitX=1;exitY=0.5;exitDx=0;exitDy=0;entryX=0;entryY=0.5;entryDx=0;entryDy=0;" parent="1" source="qsCXxjklibZktx6M7vEJ-50" target="kvsH329DIrdlZDI53jpL-1" edge="1">
          <mxGeometry relative="1" as="geometry" />
        </mxCell>
        <mxCell id="qsCXxjklibZktx6M7vEJ-50" value="&lt;span style=&quot;caret-color: rgba(0, 0, 0, 0);&quot;&gt;Set pricing basics (peak peril, target Sharpe ratio, risk-free rate)&lt;/span&gt;" style="rounded=0;whiteSpace=wrap;html=1;" parent="1" vertex="1">
          <mxGeometry x="1131" y="45" width="222" height="60" as="geometry" />
        </mxCell>
        <mxCell id="qsCXxjklibZktx6M7vEJ-55" style="edgeStyle=orthogonalEdgeStyle;rounded=0;orthogonalLoop=1;jettySize=auto;html=1;exitX=1;exitY=0.5;exitDx=0;exitDy=0;entryX=0;entryY=0.5;entryDx=0;entryDy=0;" parent="1" source="qsCXxjklibZktx6M7vEJ-51" target="qsCXxjklibZktx6M7vEJ-50" edge="1">
          <mxGeometry relative="1" as="geometry" />
        </mxCell>
        <mxCell id="qsCXxjklibZktx6M7vEJ-51" value="&lt;span style=&quot;caret-color: rgba(0, 0, 0, 0);&quot;&gt;Set CAT bond basics (minimum/maximum protection, term)&lt;/span&gt;" style="rounded=0;whiteSpace=wrap;html=1;" parent="1" vertex="1">
          <mxGeometry x="860" y="45" width="222" height="60" as="geometry" />
        </mxCell>
        <mxCell id="qsCXxjklibZktx6M7vEJ-54" style="edgeStyle=orthogonalEdgeStyle;rounded=0;orthogonalLoop=1;jettySize=auto;html=1;exitX=1;exitY=0.5;exitDx=0;exitDy=0;entryX=0;entryY=0.5;entryDx=0;entryDy=0;" parent="1" source="qsCXxjklibZktx6M7vEJ-52" target="qsCXxjklibZktx6M7vEJ-51" edge="1">
          <mxGeometry relative="1" as="geometry" />
        </mxCell>
        <mxCell id="qsCXxjklibZktx6M7vEJ-52" value="&lt;span style=&quot;caret-color: rgba(0, 0, 0, 0);&quot;&gt;Set CLIMADA b&lt;/span&gt;&lt;span style=&quot;caret-color: light-dark(rgba(0, 0, 0, 0), rgb(237, 237, 237)); background-color: transparent; color: light-dark(rgb(0, 0, 0), rgb(255, 255, 255));&quot;&gt;asics (exposure, hazard data, vulnerabiliy&lt;/span&gt;" style="rounded=0;whiteSpace=wrap;html=1;" parent="1" vertex="1">
          <mxGeometry x="585" y="45" width="222" height="60" as="geometry" />
        </mxCell>
        <mxCell id="qsCXxjklibZktx6M7vEJ-67" style="edgeStyle=orthogonalEdgeStyle;rounded=0;orthogonalLoop=1;jettySize=auto;html=1;entryX=0;entryY=0.5;entryDx=0;entryDy=0;" parent="1" source="qsCXxjklibZktx6M7vEJ-59" target="qsCXxjklibZktx6M7vEJ-63" edge="1">
          <mxGeometry relative="1" as="geometry" />
        </mxCell>
        <mxCell id="qsCXxjklibZktx6M7vEJ-59" value="&lt;span style=&quot;caret-color: rgba(0, 0, 0, 0);&quot;&gt;Set risk pooling constrain (e.g. number of pools/maximum principal)&lt;/span&gt;" style="rounded=0;whiteSpace=wrap;html=1;" parent="1" vertex="1">
          <mxGeometry x="119" y="305" width="222" height="60" as="geometry" />
        </mxCell>
        <mxCell id="CPPl7Vb1bsYcyTlTNk5o-1" style="edgeStyle=orthogonalEdgeStyle;rounded=0;orthogonalLoop=1;jettySize=auto;html=1;exitX=1;exitY=0.5;exitDx=0;exitDy=0;entryX=0;entryY=0.5;entryDx=0;entryDy=0;" edge="1" parent="1" source="qsCXxjklibZktx6M7vEJ-60" target="qsCXxjklibZktx6M7vEJ-64">
          <mxGeometry relative="1" as="geometry" />
        </mxCell>
        <mxCell id="qsCXxjklibZktx6M7vEJ-60" value="&lt;span style=&quot;caret-color: rgba(0, 0, 0, 0);&quot;&gt;Risk Pooling: Manually Assign individual pools&lt;/span&gt;" style="rounded=0;whiteSpace=wrap;html=1;" parent="1" vertex="1">
          <mxGeometry x="119" y="401" width="222" height="60" as="geometry" />
        </mxCell>
        <mxCell id="qsCXxjklibZktx6M7vEJ-69" style="edgeStyle=orthogonalEdgeStyle;rounded=0;orthogonalLoop=1;jettySize=auto;html=1;exitX=0.5;exitY=1;exitDx=0;exitDy=0;entryX=0.5;entryY=0;entryDx=0;entryDy=0;" parent="1" source="qsCXxjklibZktx6M7vEJ-63" target="qsCXxjklibZktx6M7vEJ-64" edge="1">
          <mxGeometry relative="1" as="geometry">
            <mxPoint x="630.6470588235293" y="685.5294117647059" as="targetPoint" />
          </mxGeometry>
        </mxCell>
        <mxCell id="qsCXxjklibZktx6M7vEJ-63" value="&lt;span style=&quot;caret-color: rgba(0, 0, 0, 0);&quot;&gt;Find optimal pools&lt;/span&gt;" style="rounded=0;whiteSpace=wrap;html=1;" parent="1" vertex="1">
          <mxGeometry x="407" y="305" width="222" height="60" as="geometry" />
        </mxCell>
        <mxCell id="qsCXxjklibZktx6M7vEJ-70" style="edgeStyle=orthogonalEdgeStyle;rounded=0;orthogonalLoop=1;jettySize=auto;html=1;exitX=1;exitY=0.5;exitDx=0;exitDy=0;entryX=0;entryY=0.5;entryDx=0;entryDy=0;" parent="1" source="qsCXxjklibZktx6M7vEJ-64" target="qsCXxjklibZktx6M7vEJ-66" edge="1">
          <mxGeometry relative="1" as="geometry">
            <mxPoint x="682" y="792" as="targetPoint" />
          </mxGeometry>
        </mxCell>
        <mxCell id="qsCXxjklibZktx6M7vEJ-64" value="Simulate monthly losses per bond term and calculate premiums" style="rounded=0;whiteSpace=wrap;html=1;" parent="1" vertex="1">
          <mxGeometry x="407" y="401" width="222" height="60" as="geometry" />
        </mxCell>
        <mxCell id="qsCXxjklibZktx6M7vEJ-66" value="&lt;span style=&quot;caret-color: rgba(0, 0, 0, 0);&quot;&gt;Inspect performance and financial metrics of the bond&lt;/span&gt;" style="rounded=0;whiteSpace=wrap;html=1;" parent="1" vertex="1">
          <mxGeometry x="695" y="401" width="222" height="60" as="geometry" />
        </mxCell>
        <mxCell id="kvsH329DIrdlZDI53jpL-5" style="edgeStyle=orthogonalEdgeStyle;rounded=0;orthogonalLoop=1;jettySize=auto;html=1;exitX=1;exitY=0.5;exitDx=0;exitDy=0;entryX=1;entryY=0.5;entryDx=0;entryDy=0;" parent="1" source="kvsH329DIrdlZDI53jpL-1" target="kvsH329DIrdlZDI53jpL-4" edge="1">
          <mxGeometry relative="1" as="geometry" />
        </mxCell>
        <mxCell id="kvsH329DIrdlZDI53jpL-1" value="Create subareas (&amp;amp; hazard boundary) and plot results" style="rounded=0;whiteSpace=wrap;html=1;" parent="1" vertex="1">
          <mxGeometry x="1406" y="45" width="222" height="60" as="geometry" />
        </mxCell>
        <mxCell id="kvsH329DIrdlZDI53jpL-3" value="&lt;span style=&quot;caret-color: rgba(0, 0, 0, 0);&quot;&gt;Inspect performance and financial metrics of the bond&lt;/span&gt;" style="rounded=0;whiteSpace=wrap;html=1;" parent="1" vertex="1">
          <mxGeometry x="119" y="164" width="222" height="60" as="geometry" />
        </mxCell>
        <mxCell id="kvsH329DIrdlZDI53jpL-11" style="edgeStyle=orthogonalEdgeStyle;rounded=0;orthogonalLoop=1;jettySize=auto;html=1;exitX=0;exitY=0.5;exitDx=0;exitDy=0;entryX=1;entryY=0.5;entryDx=0;entryDy=0;" parent="1" source="kvsH329DIrdlZDI53jpL-4" target="kvsH329DIrdlZDI53jpL-6" edge="1">
          <mxGeometry relative="1" as="geometry" />
        </mxCell>
        <mxCell id="kvsH329DIrdlZDI53jpL-4" value="Calculate damages per event and derive damages per return periods" style="rounded=0;whiteSpace=wrap;html=1;" parent="1" vertex="1">
          <mxGeometry x="1410" y="164" width="222" height="60" as="geometry" />
        </mxCell>
        <mxCell id="kvsH329DIrdlZDI53jpL-12" style="edgeStyle=orthogonalEdgeStyle;rounded=0;orthogonalLoop=1;jettySize=auto;html=1;exitX=0;exitY=0.5;exitDx=0;exitDy=0;entryX=1;entryY=0.5;entryDx=0;entryDy=0;" parent="1" source="kvsH329DIrdlZDI53jpL-6" target="kvsH329DIrdlZDI53jpL-8" edge="1">
          <mxGeometry relative="1" as="geometry" />
        </mxCell>
        <mxCell id="kvsH329DIrdlZDI53jpL-6" value="Generate payout functions per subarea and plot it" style="rounded=0;whiteSpace=wrap;html=1;" parent="1" vertex="1">
          <mxGeometry x="1135" y="164" width="222" height="60" as="geometry" />
        </mxCell>
        <mxCell id="kvsH329DIrdlZDI53jpL-10" style="edgeStyle=orthogonalEdgeStyle;rounded=0;orthogonalLoop=1;jettySize=auto;html=1;exitX=0;exitY=0.5;exitDx=0;exitDy=0;entryX=1;entryY=0.5;entryDx=0;entryDy=0;" parent="1" source="kvsH329DIrdlZDI53jpL-8" target="mLufBUS968L27i-inKiL-15" edge="1">
          <mxGeometry relative="1" as="geometry" />
        </mxCell>
        <mxCell id="kvsH329DIrdlZDI53jpL-8" value="Derive damages and payout per event and create 1:1 plot" style="rounded=0;whiteSpace=wrap;html=1;" parent="1" vertex="1">
          <mxGeometry x="860" y="164" width="222" height="60" as="geometry" />
        </mxCell>
      </root>
    </mxGraphModel>
  </diagram>
</mxfile>
